<?xml version="1.0" standalone="no"?>
<!DOCTYPE svg PUBLIC "-//W3C//DTD SVG 20010904//EN"
 "http://www.w3.org/TR/2001/REC-SVG-20010904/DTD/svg10.dtd">
<svg version="1.0" xmlns="http://www.w3.org/2000/svg"
 width="159.000000pt" height="155.000000pt" viewBox="0 0 159.000000 155.000000"
 preserveAspectRatio="xMidYMid meet">
<g transform="translate(0.000000,155.000000) scale(0.100000,-0.100000)"
fill="#000000" stroke="none">
<path d="M720 1400 c-313 -49 -548 -348 -526 -665 12 -165 69 -289 191 -411
96 -97 183 -144 319 -170 160 -32 310 2 455 100 256 174 344 517 206 801 -79
163 -237 293 -405 333 -68 16 -178 22 -240 12z m70 -105 l0 -95 -80 0 c-93 0
-96 4 -47 76 26 40 107 114 123 114 2 0 4 -43 4 -95z m109 42 c34 -32 91 -113
91 -129 0 -5 -42 -7 -92 -6 l-93 3 -3 79 c-2 44 -1 85 2 93 8 19 53 0 95 -40z
m-225 -24 c-20 -26 -43 -63 -51 -80 -13 -32 -14 -33 -78 -33 -36 0 -65 4 -65
9 0 19 107 105 164 132 33 16 62 27 64 25 2 -2 -13 -26 -34 -53z m317 20 c26
-14 68 -47 95 -74 l48 -49 -66 0 -66 0 -30 53 c-16 28 -39 61 -51 71 -49 44
-13 43 70 -1z m83 -7 c68 -31 156 -97 156 -117 0 -5 -15 -9 -33 -9 -26 0 -43
10 -82 51 -28 27 -70 63 -94 80 -59 39 -37 37 53 -5z m-500 -4 c-22 -16 -58
-50 -81 -75 -32 -37 -47 -47 -72 -47 -17 0 -31 4 -31 9 0 16 82 78 145 110 76
38 89 39 39 3z m-136 -140 c-1 -5 -16 -39 -33 -75 l-30 -66 -52 -1 c-29 0 -53
2 -53 5 0 13 35 72 62 108 25 32 35 37 70 37 22 0 38 -4 36 -8z m158 -14 c-4
-13 -12 -45 -20 -73 l-13 -50 -87 -3 c-47 -1 -86 0 -86 3 0 3 16 37 35 75 l35
70 71 0 c69 0 71 -1 65 -22z m194 -53 l0 -75 -105 0 c-77 0 -105 3 -105 13 0
17 26 113 34 126 4 7 42 11 92 11 l84 0 0 -75z m225 18 c9 -32 18 -66 21 -76
5 -16 -3 -17 -113 -15 l-118 3 -3 59 c-2 32 -1 65 2 72 4 11 29 14 100 14 l95
0 16 -57z m171 -8 c19 -33 34 -66 34 -72 0 -10 -23 -13 -84 -13 l-84 0 -16 65
c-9 35 -16 69 -16 75 0 7 23 10 67 8 l66 -3 33 -60z m91 43 c31 -35 73 -101
73 -115 0 -9 -17 -13 -54 -13 l-54 0 -33 68 c-18 37 -35 70 -37 75 -2 4 16 7
40 7 33 0 50 -6 65 -22z m102 -175 c18 -45 41 -164 41 -219 0 -62 -17 -155
-37 -206 l-15 -38 -558 0 -558 0 -10 28 c-49 124 -49 310 0 435 l10 27 558 0
558 0 11 -27z m-1009 -484 c0 -7 16 -43 35 -80 l35 -69 -39 0 c-34 0 -44 5
-68 38 -32 41 -73 106 -73 116 0 3 25 6 55 6 34 0 55 -4 55 -11z m205 -71 l22
-78 -72 0 -72 0 -30 58 c-17 31 -34 67 -38 80 -7 23 -6 23 80 20 l87 -3 23
-77z m215 2 l0 -80 -90 0 -89 0 -21 66 c-30 100 -36 94 90 94 l110 0 0 -80z
m239 58 c0 -13 -8 -48 -17 -78 l-18 -55 -92 -3 -92 -3 0 81 0 80 110 0 c108 0
110 0 109 -22z m191 11 c0 -6 -16 -42 -36 -80 l-36 -69 -69 0 c-38 0 -69 2
-69 5 0 5 26 106 36 143 4 16 174 17 174 1z m140 3 c0 -12 -58 -103 -83 -129
-16 -18 -32 -23 -67 -23 l-47 0 39 80 40 80 59 0 c33 0 59 -4 59 -8z m-840
-243 l71 -71 -69 37 c-38 20 -84 51 -102 70 l-34 35 32 0 c26 0 44 -13 102
-71z m102 39 c8 -18 32 -55 52 -81 34 -44 35 -48 14 -42 -69 22 -208 119 -208
146 0 5 28 9 63 9 62 0 64 -1 79 -32z m168 -58 c0 -50 -4 -90 -8 -90 -5 0 -27
13 -49 29 -42 30 -69 63 -97 119 l-17 32 86 0 85 0 0 -90z m190 81 c0 -5 -15
-30 -32 -57 -36 -53 -92 -101 -123 -106 -18 -3 -20 3 -23 71 -2 41 -1 80 2 88
6 15 176 19 176 4z m140 1 c0 -10 -66 -73 -107 -101 -33 -22 -113 -54 -113
-45 0 3 16 24 35 47 19 22 40 56 47 74 12 33 13 33 75 33 35 0 63 -4 63 -8z
m110 -1 c0 -11 -81 -71 -127 -94 -37 -20 -140 -61 -133 -54 3 3 32 25 66 50
33 24 71 58 85 75 20 26 31 31 67 31 23 1 42 -3 42 -8z"/>
<path d="M280 940 l0 -40 150 0 150 0 0 -125 0 -125 -150 0 -150 0 0 -40 0
-40 180 0 180 0 0 205 0 205 -180 0 -180 0 0 -40z"/>
<path d="M680 775 l0 -205 220 0 220 0 0 40 0 40 -190 0 -190 0 0 125 0 125
115 0 115 0 0 40 0 40 -145 0 -145 0 0 -205z"/>
<path d="M1020 940 l0 -39 73 -3 72 -3 3 -162 2 -163 30 0 30 0 0 165 0 165
65 0 65 0 0 40 0 40 -170 0 -170 0 0 -40z"/>
</g>
</svg>
